<mxfile host="app.diagrams.net" agent="Mozilla/5.0 (Windows NT 10.0; Win64; x64) AppleWebKit/537.36 (KHTML, like Gecko) Chrome/131.0.0.0 Safari/537.36" version="25.0.1">
  <diagram name="第 1 页" id="Dr65-nsEkdbHHMMv4P68">
    <mxGraphModel dx="744" dy="406" grid="1" gridSize="10" guides="1" tooltips="1" connect="1" arrows="1" fold="1" page="1" pageScale="1" pageWidth="1600" pageHeight="900" math="0" shadow="0">
      <root>
        <mxCell id="0" />
        <mxCell id="1" parent="0" />
        <mxCell id="fmxjVRoOuVWuL8vGR8kI-5" style="edgeStyle=orthogonalEdgeStyle;rounded=0;orthogonalLoop=1;jettySize=auto;html=1;exitX=1;exitY=0.5;exitDx=0;exitDy=0;exitPerimeter=0;entryX=1;entryY=0.5;entryDx=0;entryDy=0;endArrow=none;endFill=0;" edge="1" parent="1" source="fmxjVRoOuVWuL8vGR8kI-1" target="fmxjVRoOuVWuL8vGR8kI-4">
          <mxGeometry relative="1" as="geometry" />
        </mxCell>
        <mxCell id="fmxjVRoOuVWuL8vGR8kI-1" value="" style="pointerEvents=1;verticalLabelPosition=bottom;shadow=0;dashed=0;align=center;html=1;verticalAlign=top;shape=mxgraph.electrical.resistors.resistor_1;direction=west;" vertex="1" parent="1">
          <mxGeometry x="400" y="270" width="100" height="20" as="geometry" />
        </mxCell>
        <mxCell id="fmxjVRoOuVWuL8vGR8kI-2" value="" style="pointerEvents=1;verticalLabelPosition=bottom;shadow=0;dashed=0;align=center;html=1;verticalAlign=top;shape=mxgraph.electrical.resistors.resistor_1;direction=south;" vertex="1" parent="1">
          <mxGeometry x="540" y="300" width="20" height="100" as="geometry" />
        </mxCell>
        <mxCell id="fmxjVRoOuVWuL8vGR8kI-3" style="edgeStyle=orthogonalEdgeStyle;rounded=0;orthogonalLoop=1;jettySize=auto;html=1;entryX=0;entryY=0.5;entryDx=0;entryDy=0;entryPerimeter=0;endArrow=none;endFill=0;" edge="1" parent="1" source="fmxjVRoOuVWuL8vGR8kI-1" target="fmxjVRoOuVWuL8vGR8kI-2">
          <mxGeometry relative="1" as="geometry" />
        </mxCell>
        <mxCell id="fmxjVRoOuVWuL8vGR8kI-4" value="" style="ellipse;whiteSpace=wrap;html=1;aspect=fixed;" vertex="1" parent="1">
          <mxGeometry x="360" y="275" width="10" height="10" as="geometry" />
        </mxCell>
        <mxCell id="fmxjVRoOuVWuL8vGR8kI-9" style="edgeStyle=orthogonalEdgeStyle;shape=connector;rounded=0;orthogonalLoop=1;jettySize=auto;html=1;strokeColor=default;align=center;verticalAlign=middle;fontFamily=Helvetica;fontSize=11;fontColor=default;labelBackgroundColor=default;endArrow=none;endFill=0;" edge="1" parent="1" source="fmxjVRoOuVWuL8vGR8kI-6">
          <mxGeometry relative="1" as="geometry">
            <mxPoint x="550.0000000000001" y="280" as="targetPoint" />
          </mxGeometry>
        </mxCell>
        <mxCell id="fmxjVRoOuVWuL8vGR8kI-6" value="" style="ellipse;whiteSpace=wrap;html=1;aspect=fixed;" vertex="1" parent="1">
          <mxGeometry x="640" y="275" width="10" height="10" as="geometry" />
        </mxCell>
        <mxCell id="fmxjVRoOuVWuL8vGR8kI-10" value="" style="shape=waypoint;sketch=0;fillStyle=solid;size=6;pointerEvents=1;points=[];fillColor=none;resizable=0;rotatable=0;perimeter=centerPerimeter;snapToPoint=1;fontFamily=Helvetica;fontSize=11;fontColor=default;labelBackgroundColor=default;" vertex="1" parent="1">
          <mxGeometry x="540" y="270" width="20" height="20" as="geometry" />
        </mxCell>
        <mxCell id="fmxjVRoOuVWuL8vGR8kI-11" value="" style="pointerEvents=1;verticalLabelPosition=bottom;shadow=0;dashed=0;align=center;html=1;verticalAlign=top;shape=mxgraph.electrical.signal_sources.signal_ground;fontFamily=Helvetica;fontSize=11;fontColor=default;labelBackgroundColor=default;" vertex="1" parent="1">
          <mxGeometry x="527.5" y="410" width="45" height="30" as="geometry" />
        </mxCell>
        <mxCell id="fmxjVRoOuVWuL8vGR8kI-12" style="edgeStyle=orthogonalEdgeStyle;shape=connector;rounded=0;orthogonalLoop=1;jettySize=auto;html=1;exitX=0.5;exitY=0;exitDx=0;exitDy=0;exitPerimeter=0;entryX=1;entryY=0.5;entryDx=0;entryDy=0;entryPerimeter=0;strokeColor=default;align=center;verticalAlign=middle;fontFamily=Helvetica;fontSize=11;fontColor=default;labelBackgroundColor=default;endArrow=none;endFill=0;" edge="1" parent="1" source="fmxjVRoOuVWuL8vGR8kI-11" target="fmxjVRoOuVWuL8vGR8kI-2">
          <mxGeometry relative="1" as="geometry" />
        </mxCell>
        <mxCell id="fmxjVRoOuVWuL8vGR8kI-13" value="&lt;font style=&quot;font-size: 16px;&quot;&gt;R&lt;sub&gt;1&lt;/sub&gt;&lt;/font&gt;" style="text;html=1;align=center;verticalAlign=middle;whiteSpace=wrap;rounded=0;fontFamily=Helvetica;fontSize=11;fontColor=default;labelBackgroundColor=default;" vertex="1" parent="1">
          <mxGeometry x="420" y="290" width="60" height="30" as="geometry" />
        </mxCell>
        <mxCell id="fmxjVRoOuVWuL8vGR8kI-14" value="&lt;font style=&quot;font-size: 16px;&quot;&gt;R&lt;sub&gt;2&lt;/sub&gt;&lt;/font&gt;" style="text;html=1;align=center;verticalAlign=middle;whiteSpace=wrap;rounded=0;fontFamily=Helvetica;fontSize=11;fontColor=default;labelBackgroundColor=default;" vertex="1" parent="1">
          <mxGeometry x="550" y="335" width="60" height="30" as="geometry" />
        </mxCell>
      </root>
    </mxGraphModel>
  </diagram>
</mxfile>
